Patient4_TMGait_0pt5_02_right_08_EMG.mot
version=1
nRows=23
nColumns=33
inDegrees=no
endheader
time	1LAddLong	2LGlutMax	3LGlutMed	4LIliopsoas	5LSemiMemb	6LBicFemLong	7LRecFem	8LVastMed	9LVastLat	10LGasMed	11LTibAnt	12lTibPost	13LPeroneusLong	14LSol	15LExtDigLong	16LFlexDigLong	17RAddLong	18RGlutMax	19RGlutMed	20RIliopsoas	21RSemiMemb	22RBicFemLong	23RRecFem	24RVastMed	25RVastLat	26RGasMed	27RTibAnt	28RTibPost	29RPeroneusLong	30RSol	31RExtDigLong	32RFlexDigLong
11.818	0.017548	-0.050812	0.000763	0.000763	0.046387	-0.12085	-0.059357	0.00885	-0.009308	-0.048218	-0.036163	-0.001068	0.13886	-0.054626	0.066681	0.018158	-0.007019	-0.1535	0.050964	-0.05188	0.12772	-0.08255	0.06958	-0.068207	-0.002441	-0.013123	-0.16556	0.001068	0.001984	0.072174	-0.000305	-0.010529
11.819	0.008392	-0.097809	-0.001831	0.014343	0.058746	-0.09552	-0.032043	0.002899	0.048065	0.040283	-0.038605	0.008392	-0.023499	-0.067444	0.057678	0.009918	-0.007935	-0.18112	-0.015106	-0.034485	-0.081482	-0.002747	0.10056	-0.009613	0.010223	-0.021667	-0.14252	-0.001221	0.063782	0.14282	-0.001373	-0.00824
11.82	0.003052	-0.052032	0.046692	0.016937	0.001373	0.003357	0.12177	-0.00412	0.17578	0.078583	-0.021515	0.004425	0.041046	-0.048828	0.032043	0.014648	0.000916	-0.12726	-0.056763	-0.023499	-0.11276	0.004578	0.065002	-0.014191	0.002289	-0.018158	-0.041504	-0.000916	-0.001068	0.12451	-0.001526	0.000916
11.821	0.004883	-0.081024	-0.025635	0.017548	0.082703	0.11108	0.22308	-0.007324	0.13886	0.051575	-0.000153	-0.001678	0.049438	0.007324	0.045166	0.019379	-0.020294	-0.14694	-0.019379	-0.019836	-0.034332	0.026245	0.063171	-0.020752	0.007172	-0.021362	0.034637	-0.00412	-0.12177	0.07309	0.000153	-0.001373
11.822	-0.006561	-0.092926	-0.029755	-0.002136	0.059814	0.11475	0.25085	-0.005341	0.057526	0.017395	0.01297	0.004578	-0.052338	0.016022	0.12512	0.010834	-0.015869	-0.13199	-0.001984	-0.009766	0.13962	0.016479	0.056915	-0.044098	0.002747	-0.020447	-0.003815	-0.000916	-0.12985	0.11108	-0.000916	0.001678
11.823	-0.005188	-0.064087	0.018921	-0.005035	0.059967	0.043182	0.20783	0.001678	0.13504	-0.020447	0.007782	0.010529	-0.23438	-0.001373	0.15945	0.005646	-0.003662	-0.12421	0.033875	0.011292	0.030823	-0.027008	0.083466	-0.054474	-0.009766	-0.016327	0.045319	0.001984	-0.077362	0.069427	-0.001831	0.001221
11.824	0.006561	-0.051422	-0.01297	0.023956	0.055847	-0.004883	0.19043	-0.009613	0.12482	-0.029602	-0.006104	0.011139	0.10284	-0.091705	0.090485	-0.000916	0.014343	-0.14572	0.023804	0.035553	-0.076447	-0.005646	0.097351	-0.056152	-0.005341	-0.0177	0.046692	0.000305	-0.00061	0.041199	-0.001984	0.00061
11.825	0.002441	-0.061188	-0.03891	0.018616	0.036621	0.048218	0.18112	-0.015411	0.082245	-0.042572	0.001068	-0.001678	0.049896	-0.085144	0.045013	-0.000153	0.030365	-0.16983	0.017395	0.02655	-0.094757	-0.012512	0.017395	-0.062866	0.001678	-0.016785	0.067749	-0.002136	0.02655	0.056458	-0.000916	0
11.826	0.011444	-0.011902	-0.004883	0.011749	0.030823	0.053558	0.12131	0.031586	0.055084	-0.05188	0.023041	-0.002441	-0.010681	-0.009155	0.036621	0.011292	0.041504	-0.16388	-0.006256	0.037994	-0.17395	-0.045319	-0.0383	-0.1181	-0.005341	-0.023193	0.10437	-0.005341	-0.00885	0.088501	-0.001831	0.003204
11.827	0.008392	0.027924	0.074005	0.016479	0.023499	-0.11581	0.075226	0.001831	0.033112	-0.070496	0.027161	-0.001373	0.039215	0.042877	0.016327	-0.001221	0.040436	-0.11246	0.048218	0.024109	-0.23056	-0.035858	-0.002136	-0.10132	-0.018005	-0.026855	-0.12802	-0.003052	-0.031433	0.15167	-0.007324	0.00061
11.828	0.000763	-0.003662	-0.079041	0.022125	0.011902	-0.005035	0.070953	0.007172	0.007629	-0.084076	-0.016174	0.011444	0.093842	0.003815	-0.035248	0.007629	0.02594	-0.14191	0.043945	0.02533	-0.37003	-0.006714	-0.050201	-0.14603	-0.010376	-0.032043	-0.30014	-0.005341	0.000763	0.10513	-0.007172	-0.002136
11.829	0.008392	-0.000153	-0.093842	0.019073	0.004425	0.068817	0.12955	0.011444	0.015259	-0.06958	0.009155	0.001984	0.20767	-0.013733	-0.040894	-0.009918	-0.02121	-0.14038	0.023041	0.015869	-0.18494	0.003052	-0.081329	-0.09079	-0.005341	-0.033875	-0.068665	-0.005035	0.007019	0.070038	-0.004578	-0.00061
11.83	-0.005798	-0.001678	-0.015717	0.021667	0.007782	0.055389	0.066528	0.011292	0.036774	-0.024109	0.014801	-0.019073	0.22125	-0.012207	-0.036621	-0.003815	-0.014191	-0.11612	-0.030365	0.024872	0.42572	0.007935	-0.070343	-0.07019	-0.011597	-0.03418	0.04715	-0.001984	-0.021515	0.022278	-0.002441	0.010529
11.831	0.012512	0.009003	0.043182	0.004272	0.012817	0.058594	0.094757	0.007629	0.066833	0.005341	0.010529	-0.000763	0.12894	-0.046387	-0.039215	-0.005188	0.021515	-0.12726	-0.1622	0.044708	0.42725	-0.069122	-0.033264	-0.092773	-0.012817	-0.041199	0.044403	-0.000305	-0.047455	-0.02121	-0.001068	-0.014343
11.832	-0.072784	-0.020905	-0.024872	0.020752	0.001526	0.040741	0.15228	0.012512	0.039368	0.060272	0.013885	0.004883	0.085907	-0.012207	-0.040436	0.009613	0.049286	-0.059967	-0.010529	0.031128	0.23331	-0.10468	0.009766	-0.067139	-0.017242	-0.050964	0.076752	-0.003357	-0.055542	-0.046387	-0.006409	-0.001831
11.833	-0.007935	-0.026093	-0.028687	0.00885	0.003967	0.02533	0.15121	0.018921	0.035553	0.10208	0.000153	-0.004425	0.19073	-0.047607	-0.062408	-0.004272	0.031281	-0.066986	0.23727	0.054016	0.057831	-0.042877	0.025635	-0.084076	-0.010834	-0.048676	-0.075684	-0.002441	-0.035706	-0.063934	-0.001984	-0.000916
11.834	0.017853	-0.061493	-0.026093	0.018311	0.00061	-0.048828	0.14069	0.029144	0.039215	0.071869	-0.005188	0.011292	0.088348	-0.072174	-0.052032	0.004272	0.013123	-0.090637	0.48508	-0.00061	-0.10086	0.011444	0.017548	-0.081787	-0.017395	-0.040588	-0.30456	-0.001526	-0.052032	-0.058594	-0.002289	-0.000305
11.835	0.021667	-0.078583	-0.039825	0.00946	0.008545	-0.050812	0.11902	0.013123	0.069733	0.04425	0.021515	0.006409	-0.35584	-0.031433	0.026703	-0.007019	-0.022888	-0.10056	0.56183	-0.055084	-0.096893	0.072632	0.049591	-0.10346	-0.009766	-0.031433	-0.11276	-0.003662	-0.1149	-0.056	0	0.001221
11.836	-0.001678	-0.085907	-0.009918	0.019531	-0.007477	0.009308	0.20981	0.00473	-0.003052	0.015259	0.017242	-0.008087	-0.39215	-0.033112	0.016174	-0.009003	-0.021362	-0.17227	0.45013	-0.030975	-0.12665	0.14984	0.025635	-0.13596	-0.009918	-0.016174	0.021057	-0.00473	-0.088196	-0.10696	-0.005341	-0.001068
11.837	-0.00824	-0.084076	-0.024261	0.029755	-0.005798	0.002594	0.21759	-0.004578	0.009308	0.010529	0.028534	-0.000305	-0.26184	-0.071106	-0.038452	-0.002899	0.003357	-0.18829	0.20676	-0.095215	-0.11566	0.11551	0.031128	-0.10498	-0.019379	0.006409	0.22751	-0.000458	-0.14069	-0.20065	-0.000153	0.001526
11.838	-0.003815	-0.079193	-0.029144	0.007935	-0.003662	0.001221	0.21118	-0.009766	0.023041	-0.01236	0.013123	0.010071	0.004578	-0.032654	0.016479	-0.007629	0.026245	-0.16586	0.058136	-0.095825	-0.048828	0.02182	0.00473	-0.10773	-0.018768	0.037842	0.50812	-0.009308	-0.14587	-0.32181	-0.003204	-0.001831
11.839	0.006561	-0.039215	-0.00412	0.010529	-0.007629	0.005951	0.17563	-0.014954	0.028076	-0.020599	-0.004578	-0.007782	0.29221	0.00473	0.009766	-0.005493	0.043793	-0.10071	-0.013275	-0.007019	0.022888	-0.045776	-0.044861	-0.073242	-0.009003	0.068817	0.54489	-0.003967	0.03952	-0.35767	-0.00351	0.006104
11.84	0.000763	-0.035553	-0.033722	-0.001526	-0.005188	0.02182	0.15625	-0.014648	0.014648	-0.015564	-0.012207	-0.00473	-0.22339	0.094604	0.006866	-0.002899	0.040741	-0.083466	0.050964	0.12161	-0.030975	-0.032043	-0.003815	-0.075073	-0.006409	0.092316	0.44769	-0.006409	0.075378	-0.34653	0.001678	0.003052
